<svg width="749" height="117" viewBox="0 0 749 117" fill="none" xmlns="http://www.w3.org/2000/svg">
<path d="M1.19922 115.172C2.83826 114.334 3.5712 112.346 3.5712 110.645V68.9172C3.5712 67.1514 2.83826 65.2216 1.19922 64.3341H21.0873C29.9567 64.3341 38.6097 67.9647 38.6097 78.034C38.6097 83.3748 33.9554 87.5869 28.9362 88.5332C36.1665 88.4683 43.1526 92.8844 43.1526 100.863C43.1526 112.265 31.1937 115.175 22.782 115.175L1.19922 115.172ZM17.299 68.7131C16.3774 68.7131 15.7372 68.7131 14.0394 68.9172V86.7117H16.0527C22.1481 86.7117 28.0394 84.8283 28.0394 77.765C28.0394 70.7573 23.3294 68.7131 17.299 68.7131ZM18.5669 91.2917C17.1134 91.2917 15.8084 91.2917 14.0394 91.4247V110.215C16.2444 110.648 18.6288 110.79 20.8276 110.79C25.9302 110.79 31.1195 108.514 31.1195 100.718C31.1195 93.0236 24.9839 91.2917 18.5669 91.2917ZM62.8211 68.7131C61.9119 68.7131 61.111 68.8616 60.2141 68.9884V86.5694C61.046 86.6282 61.8006 86.7148 62.6232 86.7148C68.3444 86.7148 72.5781 83.5573 72.5781 77.3351C72.5781 70.9769 68.4155 68.7131 62.8211 68.7131ZM88.4552 115.472C86.5069 115.472 84.3576 115.543 82.4959 114.993C79.0353 113.972 74.2573 106.173 72.3585 103.115C69.4052 98.1417 66.8383 91.2917 60.2172 91.2175V110.645C60.2172 112.346 60.9873 114.405 62.6263 115.172H47.3584C48.9635 114.334 49.7273 112.423 49.7273 110.645V68.9172C49.7273 67.1514 48.9604 65.2216 47.3584 64.3341H65.7405C73.7378 64.3341 83.7452 67.405 83.7452 77.0135C83.7452 85.0757 77.0746 89.2074 69.6371 89.2074C80.2197 89.2692 86.4358 114.093 98.1194 114.164C94.9866 115.092 91.7209 115.472 88.4552 115.472ZM98.8863 115.172C100.148 114.594 101.469 112.927 101.469 110.645V68.9172C101.469 66.6009 100.148 64.9619 98.8863 64.3341H114.531C113.189 64.9619 111.965 66.6009 111.965 68.9172V110.645C111.965 112.927 113.189 114.594 114.531 115.172H98.8863ZM132.836 115.172C134.512 114.405 135.332 112.423 135.332 110.645V70.1635H124.097C121.505 70.1635 118.416 70.4821 116.189 71.8026L119.681 64.331H156.946C159.964 64.331 163.05 64.2661 165.982 63.6414C164.563 67.4668 160.338 70.3027 157.904 70.3027C154.945 70.2346 150.049 70.0367 145.831 70.0367V110.642C145.831 112.42 146.712 114.402 148.358 115.169L132.836 115.172ZM167.844 115.172C169.093 114.594 170.404 112.927 170.404 110.645V68.9172C170.404 66.6009 169.093 64.9619 167.844 64.3341H183.489C182.159 64.9619 180.885 66.6009 180.885 68.9172V110.645C180.885 112.927 182.159 114.594 183.489 115.172H167.844ZM213.95 103.671C213.95 93.9884 191.143 91.802 191.143 76.3455C191.143 66.7772 200.244 63.6444 208.248 63.6444C211.82 63.6444 216.987 64.1393 220.253 65.6422L220.822 75.1456C218.815 70.949 213.79 67.9091 209.123 67.9091C205.434 67.9091 201.568 69.7337 201.568 73.9519C201.568 83.9934 224.762 86.4457 224.762 101.086C224.762 111.712 215.478 116.112 206.108 116.112C201.206 116.112 194.539 115.169 190.404 112.343C190.153 110.642 190.039 108.864 190.039 107.122C190.039 105.047 190.221 102.966 190.527 100.919C193.107 106.798 198.444 111.396 205.112 111.396C210.177 111.399 213.95 109.191 213.95 103.671ZM262.812 115.172C263.917 114.674 265.098 112.927 265.098 110.645V91.7278C262.376 91.4216 258.576 91.2886 254.311 91.2886C249.982 91.2886 246.15 91.4216 243.36 91.7278V110.645C243.36 112.927 244.511 114.594 245.63 115.172H230.567C231.683 114.674 232.874 112.927 232.874 110.645V68.9172C232.874 66.6009 231.683 64.8938 230.567 64.3341H245.63C244.511 64.8969 243.36 66.6009 243.36 68.9172V86.0097C246.15 86.3035 249.914 86.4457 254.311 86.4457C258.576 86.4457 262.376 86.2602 265.098 86.0097V68.9172C265.098 66.6009 263.92 64.8938 262.812 64.3341H277.855C276.729 64.8969 275.612 66.6009 275.612 68.9172V110.645C275.612 112.927 276.729 114.594 277.855 115.172H262.812Z" fill="#2E5C99"/>
<path d="M333.691 115.172C334.176 114.675 334.615 114.303 334.615 113.403C334.615 113.1 334.501 112.593 334.13 111.647C334.13 111.647 329.955 100.285 329.466 98.9613C326.33 98.5748 323.062 98.5748 319.861 98.5748C316.824 98.5748 313.741 98.6459 310.732 98.9613C310.305 100.099 305.83 111.4 305.83 111.4C305.227 112.927 305.02 113.45 305.02 113.784C305.02 114.538 305.669 114.906 306.22 115.172H295.986C297.495 114.405 298.804 112.828 299.45 111.257L316.267 67.8504C316.345 67.671 316.372 67.47 316.372 67.2257C316.372 66.0289 315.578 64.8939 314.508 64.3311H327.7L344.805 111.214C345.504 113.097 346.995 114.47 348.247 115.169L333.691 115.172ZM320.408 74.0107L312.698 93.803C314.996 94.0566 317.38 94.1153 319.706 94.1153C322.372 94.1153 325.007 94.1153 327.598 93.803L320.408 74.0107ZM350.851 115.172C352.113 114.594 353.418 112.927 353.418 110.645V68.9173C353.418 66.601 352.113 64.962 350.851 64.3342H366.487C365.157 64.962 363.917 66.601 363.917 68.9173V110.645C363.917 112.927 365.154 114.594 366.487 115.172H350.851ZM390.256 68.7132C389.412 68.7132 388.602 68.8616 387.723 68.9884V86.5695C388.54 86.6283 389.285 86.7149 390.08 86.7149C395.813 86.7149 400.038 83.5574 400.038 77.3352C400.035 70.9769 395.857 68.7132 390.256 68.7132ZM417.167 115.472C415.219 115.472 413.116 115.544 411.211 114.993C407.744 113.972 402.979 106.173 401.077 103.115C398.136 98.1418 394.307 91.2176 387.723 91.2176V110.645C387.723 112.346 388.459 114.405 390.08 115.172H374.824C376.463 114.334 377.227 112.423 377.227 110.645V68.9173C377.227 67.1515 376.463 65.2217 374.824 64.3342H393.247C401.222 64.3342 411.214 67.4051 411.214 77.0136C411.214 85.0758 403.925 89.2075 398.408 89.2075C409.377 89.8383 415.992 114.164 426.875 114.164C423.721 115.092 420.455 115.472 417.167 115.472ZM480.595 69.2977L465.145 115.172C463.871 115.172 462.622 114.733 461.913 114.235C460.386 112.763 457.983 106.618 457.117 104.352L450.134 86.7118L440.077 115.172H435.29L417.999 69.1833C417.257 67.2257 415.989 65.3485 414.103 64.3342H429.129C428.495 64.8259 428.059 65.3856 428.059 66.4556C428.059 66.969 428.313 67.6772 428.495 68.2246L439.755 98.649L451.745 64.3342L464.95 97.4151L474.952 67.47C475.199 66.6567 475.344 66.3567 475.344 65.8433C475.344 65.2217 475.075 64.8259 474.447 64.3342H484.399C482.559 65.299 481.229 67.4051 480.595 69.2977ZM499.064 74.0107L491.357 93.803C493.683 94.0566 496.061 94.1153 498.381 94.1153C501.019 94.1153 503.684 94.1153 506.26 93.803L499.064 74.0107ZM512.331 115.172C512.857 114.675 513.256 114.303 513.256 113.403C513.256 113.1 513.101 112.593 512.795 111.647C512.795 111.647 508.648 100.285 508.144 98.9613C504.98 98.5748 501.717 98.5748 498.517 98.5748C495.508 98.5748 492.421 98.6459 489.397 98.9613C488.961 100.099 484.517 111.4 484.517 111.4C483.877 112.927 483.7 113.45 483.7 113.784C483.7 114.538 484.322 114.906 484.866 115.172H474.63C476.142 114.405 477.447 112.828 478.081 111.257L494.957 67.8504C495.007 67.671 495.053 67.47 495.053 67.2257C495.053 66.0289 494.255 64.8939 493.157 64.3311H506.362L523.461 111.214C524.169 113.097 525.678 114.47 526.922 115.169L512.331 115.172ZM558.271 69.6719L546.228 90.7877V110.645C546.228 112.259 546.89 114.405 548.498 115.172H533.515C535.046 114.334 535.751 112.207 535.751 110.645V90.7228L525.283 73.952C524.346 72.384 519.979 65.0764 514.657 65.0764C516.104 64.5259 520.505 63.6878 523.458 63.6878C528.384 63.6878 530.824 64.1393 533.84 68.8616L543.525 84.213C544.339 82.7069 552.008 69.3719 552.008 69.3719C552.933 67.7483 553.567 66.601 553.567 66.032C553.567 65.3021 553.251 64.8259 552.509 64.3342H563.302C561.187 65.3485 559.424 67.6741 558.271 69.6719ZM586.459 103.671C586.459 93.9885 563.649 91.8021 563.649 76.3456C563.649 66.7773 572.725 63.6445 580.732 63.6445C584.316 63.6445 589.453 64.1393 592.734 65.6423L593.303 75.1457C591.274 70.9491 586.27 67.9091 581.601 67.9091C577.905 67.9091 574.064 69.7337 574.064 73.952C574.064 83.9934 597.258 86.4458 597.258 101.086C597.258 111.712 588.039 116.113 578.601 116.113C573.702 116.113 567.019 115.169 562.879 112.343C562.609 110.642 562.48 108.864 562.48 107.123C562.48 105.047 562.678 102.966 562.993 100.919C565.569 106.798 570.925 111.396 577.593 111.396C582.68 111.4 586.459 109.191 586.459 103.671Z" fill="#2E5C99"/>
<path d="M726.789 28.7482C718.241 37.2434 699.723 44.5356 690.612 47.9498C678.165 52.6257 672.642 54.2802 665.677 56.5471C657.794 59.1046 642.025 63.8764 642.025 63.8764C674.692 73.6302 697.713 76.5712 697.713 76.5712C697.713 76.5712 708.438 73.256 725.428 64.1702C734.628 59.4942 739.156 56.346 742.394 53.337C743.587 52.2577 746.671 49.0477 747.438 44.9408C747.487 44.6408 747.636 43.8553 747.636 43.0821C747.636 43.0821 747.636 42.5379 747.586 42.0647C747.568 41.5204 747.472 41.1555 747.472 41.1555C747.472 41.1555 747.289 40.1813 747.048 39.4979C746.798 38.8144 745.746 36.7053 744.042 35.3353C742.904 34.4107 740.937 32.1067 733.812 29.6018C731.39 28.7606 727.469 27.9844 727.469 27.9844L726.789 28.7482Z" fill="url(#paint0_linear_106_2868)"/>
<path d="M747.632 42.8656C747.632 42.8656 747.583 41.9564 747.36 41.1863C747.187 40.4998 746.881 39.8442 746.42 39.1545C745.863 38.335 745.112 37.3732 744.002 36.3094C743.164 35.5177 742.245 34.8188 741.138 34.0766C736.682 31.1572 730.929 29.512 725.839 28.8162C717.95 27.7678 708.901 27.9534 708.045 27.9224C705.135 27.8822 686.332 28.0369 681.498 28.1235C660.033 28.5657 633.756 28.6244 626.872 28.6244C555.808 28.9492 524.877 27.4184 490.451 20.5158C461.164 14.6987 444.916 9.17238 444.916 9.17238C470.748 8.27863 621.472 2.02552 648.968 1.29568C666.97 0.788507 679.751 0.680268 689.978 1.27094C695.223 1.56473 700.103 2.01006 706.232 3.05224C711.728 3.99238 716.719 5.58813 719.626 6.66742C725.749 8.93425 730.911 12.2123 733.462 15.5708C733.462 15.5708 734.217 16.344 735.24 17.7171C736.388 19.3128 737.721 21.2766 738.172 22.0095C741.899 27.6565 743.668 31.2036 744.283 32.4406C744.948 33.7395 745.535 35.0878 746.108 36.4084C746.667 37.7196 746.896 38.5144 747.076 39.0679C747.468 40.4565 747.564 41.7213 747.583 42.0059L747.632 42.8656Z" fill="#CE210F"/>
<defs>
<linearGradient id="paint0_linear_106_2868" x1="715.899" y1="18.4315" x2="677.749" y2="84.5079" gradientUnits="userSpaceOnUse">
<stop stop-color="#E6EBEF"/>
<stop offset="0.0764" stop-color="#BBCEE5"/>
<stop offset="0.1854" stop-color="#85A9D8"/>
<stop offset="0.2796" stop-color="#5D8FCF"/>
<stop offset="0.3543" stop-color="#457EC9"/>
<stop offset="0.4" stop-color="#3C78C7"/>
<stop offset="0.9" stop-color="#2E5C99"/>
</linearGradient>
</defs>
</svg>
