<svg width="433" height="248" viewBox="0 0 433 248" fill="none" xmlns="http://www.w3.org/2000/svg">
<path d="M0 168.263C0 123.652 36.5267 88.9219 84.1311 88.9219C111.676 88.9219 136.826 101.197 151.197 119.76L130.538 140.418C125.059 133.403 118.067 127.714 110.085 123.774C102.102 119.834 93.3323 117.746 84.4309 117.664C55.9875 117.664 33.2333 138.922 33.2333 168.263C33.2333 197.904 55.9875 219.161 84.4309 219.161C93.6514 219.15 102.744 217.009 111.002 212.907C119.259 208.804 126.457 202.85 132.035 195.508L152.395 215.569C138.622 235.029 112.275 247.903 84.1311 247.903C36.5267 247.903 0 213.173 0 168.263Z" fill="#255BE3"/>
<path d="M179.334 94.3115H211.969V242.515H179.334V94.3115Z" fill="#255BE3"/>
<path d="M272.754 202.694V121.857H237.125V94.3118H274.25V62.575L304.79 47.6051V94.3118H353.293V121.857H304.79V197.306C304.79 212.276 313.173 218.863 329.041 218.863C337.298 218.905 345.467 217.169 352.993 213.772V241.917C343.563 246.054 333.348 248.097 323.053 247.904C294.011 247.904 272.754 232.036 272.754 202.694Z" fill="#255BE3"/>
<path d="M379.037 94.3115H411.672V242.515H379.037V94.3115Z" fill="#255BE3"/>
<path d="M295.217 0.000478106C322.019 -0.0636445 348.444 6.32312 372.258 18.6207C396.073 30.9191 416.578 48.7676 432.043 70.6589H394.019C381.556 56.8061 366.319 45.7291 349.298 38.1465C332.276 30.5638 313.851 26.6453 295.217 26.6453C276.583 26.6453 258.157 30.5638 241.136 38.1465C224.114 45.7291 208.877 56.8061 196.415 70.6589H158.391C173.855 48.7676 194.361 30.9191 218.175 18.6207C241.99 6.32312 268.414 -0.0636445 295.217 0.000478106Z" fill="#FF3C28"/>
</svg>
