<svg width="606" height="250" viewBox="0 0 606 250" fill="none" xmlns="http://www.w3.org/2000/svg">
<path d="M2.49609 135.299C2.77772 134.495 3.05934 133.73 3.46166 132.966C12.9563 113.775 53.5502 105.85 111.725 112.89L123.433 69.8423C63.5679 62.2385 19.8762 70.8078 12.5943 98.0447L2.49609 135.299Z" fill="#0095FF"/>
<path d="M220.952 90.4812C220.711 91.1249 220.469 91.7686 220.188 92.4123C211.095 111.884 170.341 119.931 111.723 112.85L100.016 155.898C159.88 163.502 203.572 154.932 210.854 127.696L220.952 90.4812Z" fill="#0000C9"/>
<path d="M40.7969 45.0998C129.146 51.4564 219.386 95.1481 210.856 127.776L218.782 98.6482C221.317 89.4754 222.564 84.728 222.564 80.906C222.564 47.6746 135.462 7.12102 52.5043 2.05182L40.7969 45.0998Z" fill="#0095FF"/>
<path d="M182.653 180.64C94.3036 174.324 4.06386 130.632 12.6332 98.0045L4.70756 127.132C2.17296 136.305 0.925781 141.052 0.925781 144.874C0.925781 178.106 88.0275 218.659 170.985 223.729L182.653 180.64Z" fill="#0000C9"/>
<path d="M504.909 170.502C493.725 170.663 487.771 163.542 487.771 150.909C487.771 150.064 487.811 149.26 487.851 148.455H531.784C532.669 145.116 533.232 141.495 533.232 138.156C533.232 122.747 523.778 110.999 504.467 110.999C484.713 110.999 467.172 130.472 467.172 150.909C467.172 170.502 479.966 182.411 501.288 182.411C510.743 182.411 520.036 179.232 526.554 174.284L522.491 164.105C517.421 168.048 511.185 170.381 504.909 170.502ZM504.789 122.023C511.306 122.023 514.645 126.247 514.645 135.541C514.645 136.426 514.605 137.351 514.484 138.317H489.42C492.156 128.5 497.989 122.023 504.789 122.023Z" fill="#0000C9"/>
<path d="M330.988 106.654C330.988 90.6823 318.516 79.0554 299.607 79.0554H263.036L235.438 180.681H258.53L268.709 143.225H288.745C311.677 143.225 330.988 128.42 330.988 106.654ZM279.894 131.316H271.968L282.911 90.9639H291.239C301.739 90.9639 307.653 98.085 307.653 107.499C307.613 122.586 295.785 131.316 279.894 131.316Z" fill="#0000C9"/>
<path d="M361.079 112.89L363.654 103.436C364.942 98.4873 367.154 90.0788 370.172 80.3428C373.35 70.3251 379.184 64.0892 387.029 64.0892C390.811 64.0892 393.144 65.8191 393.144 68.7158C392.983 71.8941 390.368 73.785 390.368 78.8944C390.368 84.8487 395.437 89.4754 401.995 89.4754C410.122 89.4754 416.639 82.9578 416.639 74.9517C416.639 62.6006 406.058 54.4738 389.925 54.4738C366.269 54.4738 350.74 69.5607 341.004 104.844L301.496 248.431H323.865L357.981 123.994H381.235L365.947 180.6H388.316L406.622 112.81H361.079V112.89Z" fill="#0000C9"/>
<path d="M474.293 112.89H415.072L412.135 124.075H440.821L396.324 180.681H459.045L461.942 169.496H429.676L474.293 112.89Z" fill="#0000C9"/>
<path d="M591.607 111.724C583.6 111.724 575.071 116.913 568.393 127.655L572.295 112.89H549.927L531.621 180.681H553.99L562.278 150.185C565.617 137.713 573.744 125.523 579.135 125.523C584.928 125.523 582.756 136.426 592.773 136.426C600.015 136.426 604.4 129.747 604.4 123.632C604.36 116.511 598.728 111.724 591.607 111.724Z" fill="#0000C9"/>
</svg>
