<svg width="750" height="153" viewBox="0 0 750 153" fill="none" xmlns="http://www.w3.org/2000/svg">
<g clip-path="url(#clip0_106_2740)">
<path d="M19.6788 20.3758H36.0516C51.0075 20.3758 57.4622 25.0988 57.4622 34.702C57.4622 43.0459 50.8501 48.7133 37.7834 48.7133H19.8363V20.3758H19.6788ZM0 114.362H39.9874C60.9257 114.362 82.0214 106.805 82.0214 82.7184C82.0214 68.3922 71.9458 57.5295 58.0919 55.9552V55.6403C69.5844 52.1768 77.2985 43.833 77.2985 31.396C77.2985 11.2448 60.1385 3.53076 43.2935 3.53076H0V114.362ZM19.6788 65.5584H38.5705C54.6285 65.5584 62.0277 69.6516 62.0277 81.3015C62.0277 95.9425 47.8589 97.6743 37.7834 97.6743H19.6788V65.5584Z" fill="black"/>
<path d="M94.7734 0.854492H113.508V114.362H94.7734V0.854492Z" fill="black"/>
<path d="M144.994 76.7361C144.994 64.9288 153.338 54.2235 167.034 54.2235C180.888 54.2235 189.075 65.0862 189.075 76.7361C189.075 88.5434 180.731 99.2486 167.034 99.2486C153.338 99.4061 144.994 88.5434 144.994 76.7361ZM126.26 76.7361C126.26 100.351 144.364 116.251 167.192 116.251C189.862 116.251 208.124 100.351 208.124 76.7361C208.124 53.1215 190.019 37.2209 167.192 37.2209C144.364 37.3784 126.26 53.1215 126.26 76.7361Z" fill="black"/>
<path d="M235.358 76.7361C235.358 64.9288 243.702 54.2235 257.399 54.2235C271.253 54.2235 279.439 65.0862 279.439 76.7361C279.439 88.5434 271.095 99.2486 257.399 99.2486C243.545 99.4061 235.358 88.5434 235.358 76.7361ZM216.467 76.7361C216.467 100.351 234.571 116.251 257.399 116.251C280.069 116.251 298.331 100.351 298.331 76.7361C298.331 53.1215 280.226 37.2209 257.399 37.2209C234.729 37.3784 216.467 53.1215 216.467 76.7361Z" fill="black"/>
<path d="M309.824 39.2676H327.613V51.0749H327.928C331.234 43.9905 338.476 37.3784 350.913 37.3784C362.563 37.3784 370.434 41.9439 374.37 51.3897C379.88 41.7865 387.909 37.3784 399.087 37.3784C419.08 37.3784 426.165 51.7046 426.165 69.6517V114.519H407.431V71.8557C407.431 62.4098 404.597 54.3809 393.419 54.3809C381.612 54.3809 377.204 64.1416 377.204 73.7449V114.519H358.47V69.6517C358.47 60.3633 354.691 54.2235 345.56 54.2235C333.123 54.2235 328.4 63.3545 328.4 73.2726V114.362H309.666V39.2676H309.824Z" fill="black"/>
<path d="M503.936 76.7361C503.936 88.5434 495.593 99.2487 481.896 99.2487C468.042 99.2487 459.856 88.386 459.856 76.7361C459.856 64.9288 468.2 54.2235 481.896 54.2235C495.593 54.2235 503.936 65.0862 503.936 76.7361ZM441.594 114.362H459.383V103.027H459.698C465.208 112.158 475.127 116.251 485.517 116.251C508.659 116.251 522.671 99.0913 522.671 76.7361C522.671 54.5384 507.715 37.221 486.304 37.221C472.135 37.221 464.736 43.8331 460.8 48.7134H460.328V0.854492H441.594V114.362Z" fill="black"/>
<path d="M550.064 69.3368C551.48 58.4741 558.407 51.5472 569.428 51.5472C581.235 51.5472 588.319 58.4741 588.477 69.3368H550.064ZM607.368 83.3482V78.1529C607.368 52.0194 593.042 37.2209 572.104 37.2209C549.434 37.2209 531.172 53.1215 531.172 76.7361C531.172 100.351 549.276 116.251 572.104 116.251C584.069 116.251 595.089 112.001 603.905 101.138L590.366 90.9048C585.643 96.7298 579.503 101.138 570.215 101.138C559.667 101.138 551.323 94.3683 550.064 83.3482H607.368Z" fill="black"/>
<path d="M619.646 39.2676H638.381V51.2323H638.696C642.789 42.5736 651.133 37.3784 660.893 37.3784C663.255 37.3784 665.459 37.8507 667.663 38.4804V56.585C664.514 55.7978 661.523 55.1681 658.532 55.1681C640.9 55.1681 638.381 70.124 638.381 74.0598V114.362H619.646V39.2676Z" fill="black"/>
<path d="M709.855 54.2235C723.551 54.2235 732.053 63.3545 732.053 76.2638C732.053 88.8583 723.552 98.3041 709.698 98.3041C696.946 98.3041 687.657 88.3859 687.657 76.5786C687.657 63.3544 696.631 54.2235 709.855 54.2235ZM732.053 39.2676V50.6026H731.738C726.228 41.4716 716.31 37.3784 705.919 37.3784C682.777 37.3784 668.766 54.6958 668.766 76.8935C668.766 98.1466 683.722 115.464 706.234 115.464C715.68 115.464 725.283 111.843 730.793 104.444H731.108V109.954C731.108 124.91 725.441 135.143 707.336 135.143C696.788 135.143 689.074 131.207 681.517 124.28L670.182 139.708C680.888 149.154 693.482 152.145 707.494 152.145C736.776 152.145 750 134.985 750 107.75V39.2676H732.053Z" fill="black"/>
</g>
<defs>
<clipPath id="clip0_106_2740">
<rect width="750" height="151.291" fill="white" transform="translate(0 0.854492)"/>
</clipPath>
</defs>
</svg>
