<svg width="750" height="201" viewBox="0 0 750 201" fill="none" xmlns="http://www.w3.org/2000/svg">
<g clip-path="url(#clip0_107_2895)">
<path d="M310.904 147.872H249.018V118.108H312.378C320.334 118.845 326.302 125.255 326.302 132.843C326.376 141.094 319.598 147.872 310.904 147.872ZM249.092 50.549H314.736C321.882 51.6542 327.555 57.6955 327.555 64.9154C327.555 72.1354 321.882 78.8399 314.367 79.6502H249.829L249.092 50.549ZM341.111 97.7004C364.908 90.1856 369.033 71.3251 369.033 55.8536C369.033 32.0567 351.646 11.7227 300.001 11.7227H203.414V188.983H299.632C351.72 188.983 370.949 163.344 370.949 138.074C370.875 107.499 341.111 97.7002 341.111 97.7002L341.111 97.7004Z" fill="#012A2D"/>
<path d="M587.035 12.0911H750.002V50.549H632.345V79.2083H738.362V118.035H632.345V148.978H750.002V189.719H587.035V12.0911Z" fill="#012A2D"/>
<path d="M516.897 67.1257C516.16 72.7986 510.119 79.2083 502.162 79.2083H438.434V50.9174H502.162C509.677 50.9174 515.718 56.222 516.897 63.3684V67.1257ZM491.995 12.0911H393.566V189.793H438.802V118.108H488.606C502.972 118.476 513.876 129.454 513.876 143.378V189.793H558.375V132.475C558.375 106.099 531.558 98.1423 531.558 98.1423C531.558 98.1423 559.112 90.1856 559.112 58.9477C558.744 19.9742 524.412 12.0911 491.995 12.0911Z" fill="#012A2D"/>
<path d="M174.018 146.694C173.281 146.694 112.131 147.799 91.0605 145.957C57.0967 142.936 45.0143 118.771 45.0143 99.1739C45.0143 74.6405 62.4015 56.5166 89.5135 53.1277C102.333 51.6541 172.913 52.3909 173.649 52.3909H175.123V12.0911H93.6392C84.5773 12.4595 69.8424 13.5646 54.8129 19.2376C40.8884 25.6472 27.9955 35.4459 18.5653 47.5285C6.85108 63 0.441406 81.1239 0.441406 100.353C0.441406 106.394 0.809785 112.435 1.91492 118.108C7.58784 144.926 26.0799 167.175 52.4554 179.184C61.5173 182.941 75.0734 187.509 102.996 188.983L118.099 189.351H175.417V146.694L174.018 146.694Z" fill="#012A2D"/>
</g>
<defs>
<clipPath id="clip0_107_2895">
<rect width="750" height="199.468" fill="white" transform="translate(0 0.765961)"/>
</clipPath>
</defs>
</svg>
