<svg width="750" height="91" viewBox="0 0 750 91" fill="none" xmlns="http://www.w3.org/2000/svg">
<path d="M0 47.6342C0 20.884 19.3429 3.04883 43.7177 3.04883C53.6816 3.04883 62.2334 6.21391 69.5047 10.9088V22.878C62.5864 17.4763 54.5036 13.2562 43.8389 13.2562C26.3771 13.2562 11.9609 26.0431 11.9609 47.5129C11.9609 66.7566 24.7332 81.0732 45.9466 81.0732C56.1476 81.0732 65.8691 76.8479 71.8495 69.104L72.1973 69.22C69.1517 81.7748 57.9022 90.8111 41.726 90.8111C18.1731 90.8111 0.00526822 73.7988 0.00526822 47.6342H0Z" fill="black"/>
<path d="M79.3359 1.40845H90.8173V89.4134H79.3359V1.40845Z" fill="black"/>
<path d="M103.006 10.4448C103.006 6.21938 106.404 3.51851 110.272 3.51851C114.139 3.51851 117.538 6.33543 117.538 10.4448C117.538 14.7862 114.255 17.3657 110.272 17.3657C106.289 17.3657 103.006 14.6649 103.006 10.4448ZM134.304 37.0736H116.021V89.4029H104.534V28.0373H134.299V20.2934C134.299 8.09205 142.498 1.40318 152.699 1.40318C156.213 1.40318 160.202 2.46348 162.663 3.75589V12.5601C159.733 11.1516 157.035 10.334 154.696 10.334C149.89 10.334 145.786 12.328 145.786 20.1879V28.0479H167.584V19.481C167.584 6.33543 176.494 0 187.859 0C191.374 0 195.479 0.938974 198.408 2.34216V11.1463C195.01 9.73788 192.08 8.92024 189.266 8.92024C183.639 8.92024 179.065 11.1463 179.065 19.481V28.0479H195.004V37.0842H179.065V89.4134H167.584V37.0789H145.786V89.4081H134.304V37.0789V37.0736Z" fill="black"/>
<path d="M194.6 58.7862C194.6 39.5425 207.372 26.6343 225.424 26.6343C243.476 26.6343 256.248 39.5372 256.248 58.7862C256.248 78.0351 243.476 90.8168 225.424 90.8168C207.372 90.8168 194.6 77.9138 194.6 58.7862ZM244.761 58.7862C244.761 43.8839 236.911 35.7866 225.424 35.7866C213.937 35.7866 206.081 44 206.081 58.7862C206.081 73.5724 214.048 81.6644 225.424 81.6644C236.8 81.6644 244.761 73.451 244.761 58.7862Z" fill="black"/>
<path d="M263.166 28.0425H274.647V40.8294H275C277.93 31.4449 284.026 27.1035 291.408 27.1035C293.516 27.1035 295.745 27.573 297.152 28.3959V38.4872C295.276 37.6643 292.462 37.1948 290.476 37.1948C281.803 37.1948 274.658 42.8287 274.658 56.3225V89.4133H263.177V28.0425H263.171H263.166Z" fill="black"/>
<path d="M299.85 58.786C299.85 37.0789 313.444 26.6341 327.623 26.6341C336.649 26.6341 344.5 30.1526 348.373 39.6637H348.842V1.40845H360.323V89.4134H348.842V77.5602H348.489C344.621 87.182 336.649 90.8219 327.623 90.8219C313.444 90.8219 299.85 80.3771 299.85 58.7913V58.786ZM348.836 61.835V55.6157C348.836 42.5861 341.217 35.7865 330.437 35.7865C318.955 35.7865 311.331 44.7067 311.331 58.786C311.331 72.8653 318.95 81.6642 330.437 81.6642C341.923 81.6642 348.836 74.6219 348.836 61.835Z" fill="black"/>
<path d="M381.186 47.6342C381.186 20.884 400.528 3.04883 424.903 3.04883C434.867 3.04883 443.419 6.21391 450.69 10.9088V22.878C443.772 17.4763 435.689 13.2562 425.024 13.2562C407.563 13.2562 393.146 26.0431 393.146 47.5129C393.146 66.7618 405.919 81.0732 427.132 81.0732C437.333 81.0732 447.055 76.8479 453.035 69.104L453.383 69.22C450.337 81.7748 439.088 90.8111 422.912 90.8111C399.359 90.8111 381.191 73.7988 381.191 47.6342H381.186Z" fill="black"/>
<path d="M488.421 35.8972C480.57 35.8972 472.013 40.1226 472.013 55.7264V89.4029H460.531V1.40845H472.013V39.7745H472.482C475.88 32.0306 482.561 26.6288 492.873 26.6288C505.645 26.6288 513.97 34.9583 513.97 49.0429V89.4029H502.484V50.3247C502.484 41.1724 497.215 35.8972 488.421 35.8972Z" fill="black"/>
<path d="M520.885 73.5616C520.885 63.945 526.981 57.1348 541.982 54.6766L557.921 51.9757V49.623C557.921 39.2943 552.652 36.0132 544.211 36.0132C538.115 36.0132 531.323 37.7698 523.588 41.531V31.7931C529.215 29.2083 536.95 26.634 545.033 26.634C559.802 26.634 569.413 34.2619 569.413 49.6336V89.4081H558.28V80.8412H557.811C554.412 87.0606 547.847 90.8165 539.875 90.8165C526.986 90.8165 520.89 82.9566 520.89 73.5721V73.5616H520.885ZM543.5 82.3658C552.173 82.3658 558.027 77.7869 558.027 70.7447L557.911 59.5983L543.847 62.2992C535.175 63.9397 532.245 67.7009 532.245 72.7439C532.245 77.7869 535.291 82.3658 543.495 82.3658H543.5Z" fill="black"/>
<path d="M606.788 35.8971C598.937 35.8971 590.38 40.1224 590.38 55.7263V89.4027H578.898V28.0371H590.38V39.7743H590.844C594.242 32.0304 600.929 26.6287 611.235 26.6287C624.007 26.6287 632.332 34.9581 632.332 49.0427V89.4027H620.851V50.3245C620.851 41.1722 615.571 35.8971 606.788 35.8971Z" fill="black"/>
<path d="M639.84 58.7806C639.84 39.0674 652.612 26.6287 671.128 26.6287C676.755 26.6287 682.261 27.9211 688.474 31.4396V41.4148C682.614 37.5376 677.572 35.781 672.182 35.781C659.641 35.781 651.316 44.8173 651.316 58.7806C651.316 72.7438 659.757 81.6641 672.182 81.6641C677.577 81.6641 682.73 79.9075 688.474 76.2623V86.0002C682.261 89.5187 676.75 90.8111 671.128 90.8111C652.612 90.8111 639.84 78.3724 639.84 58.7806Z" fill="black"/>
<path d="M693.162 58.5433C693.162 39.537 705.582 26.5127 723.518 26.5127C740.047 26.5127 749.884 38.7141 750 55.7264C750 56.6653 749.884 58.3112 749.652 60.4212H704.886C705.35 72.976 713.206 81.4268 726.916 81.3107C734.303 81.3107 740.626 78.842 747.539 74.8592V84.9506C741.095 88.7012 733.36 90.8165 726.21 90.8165C705.935 90.8165 693.041 77.9135 693.157 58.5485L693.168 58.538L693.162 58.5433ZM739.573 52.4452C738.988 41.8844 733.128 35.4329 723.281 35.3169C712.732 35.3169 705.697 42.4752 704.881 52.4452H739.578H739.573Z" fill="black"/>
</svg>
