<svg width="606" height="250" viewBox="0 0 606 250" fill="none" xmlns="http://www.w3.org/2000/svg">
<path d="M134.615 24.5862C111.734 24.5862 97.6144 41.8695 97.6144 71.3242C97.6144 100.536 111.734 118.062 134.615 118.062C157.497 118.062 171.616 100.779 171.616 71.3242C171.616 41.8695 157.741 24.5862 134.615 24.5862ZM134.615 112.707C125.852 112.707 123.174 103.213 123.174 71.0809C123.174 38.9484 125.852 29.4547 134.615 29.4547C143.379 29.4547 146.057 39.1918 146.057 71.3242C146.057 103.213 143.379 112.707 134.615 112.707ZM303.311 156.767C293.573 156.767 286.514 160.418 282.376 166.748V134.615H257.789V194.255C257.789 226.631 239.289 241.967 222.492 241.967C210.078 241.967 204.966 233.447 204.966 204.236C204.966 175.024 208.131 161.879 218.111 161.879C224.684 161.879 230.283 168.209 235.881 182.814H241.967V161.149C234.664 158.228 225.658 156.767 218.598 156.767C193.525 156.767 179.406 174.781 179.406 204.236C179.406 233.447 193.525 250 217.381 250C237.098 250 251.217 239.533 257.789 221.762V247.81H282.376V181.597C282.376 171.373 287.975 166.261 293.817 166.261C299.415 166.261 301.363 170.887 301.363 177.945V248.053H325.949V182.57C325.949 164.313 316.942 156.767 303.311 156.767ZM186.709 2.43428V115.871H211.295V2.43428H186.709ZM275.316 2.43428V33.3495C273.126 27.9941 267.77 24.5862 259.25 24.5862C240.019 24.5862 227.118 41.8695 227.118 70.8374C227.118 100.536 238.559 117.819 258.277 117.819C267.527 117.819 273.856 113.438 276.777 104.431V115.628H299.66V2.43428H275.316ZM263.145 110.76C255.356 110.76 252.678 102.97 252.678 70.5939C252.678 40.1656 255.356 31.1588 263.632 31.1588C272.638 31.1588 275.803 41.8695 275.803 70.5939C275.803 99.5615 271.665 110.76 263.145 110.76ZM405.793 24.5862C394.839 24.5862 386.806 30.4285 383.398 38.4615C379.99 29.2113 373.174 24.5862 363.438 24.5862C352.97 24.5862 345.423 29.2113 341.772 36.7575V26.777H318.89V115.871H343.233V49.4158C343.233 39.1918 348.101 34.0798 354.187 34.0798C359.299 34.0798 361.489 38.2181 361.489 45.2775V115.871H386.076V49.4158C386.076 39.1918 390.944 34.0798 397.03 34.0798C402.142 34.0798 404.333 38.2181 404.333 45.2775V115.871H428.919V50.3895C428.919 32.1324 419.669 24.5862 405.793 24.5862ZM385.589 195.715L371.47 187.196C361.977 181.597 358.568 178.188 358.568 172.347C358.568 165.774 363.194 161.636 370.984 161.636C380.234 161.636 387.05 167.721 391.188 182.57H397.274V159.688C389.484 157.985 380.72 156.524 372.931 156.524C353.214 156.524 341.286 166.261 341.286 182.084C341.286 193.038 347.371 200.585 359.786 208.131L371.47 215.189C381.208 221.032 384.615 225.17 384.615 231.743C384.615 240.262 379.26 244.644 370.01 244.644C358.568 244.644 351.996 237.341 347.614 221.276H341.529V246.349C350.536 248.783 360.029 249.757 367.819 249.757C390.214 249.757 403.116 239.289 403.116 221.762C402.872 209.835 397.03 202.532 385.589 195.715ZM479.309 24.5862C470.059 24.5862 459.104 26.2902 448.88 29.4547V50.3895H454.966C460.078 37.2444 466.894 29.9415 476.631 29.9415C482.716 29.9415 485.151 32.8627 485.151 39.6787V51.1198C485.151 56.7186 483.69 58.4226 477.362 60.6135L470.789 62.8043C451.314 69.3768 442.551 77.8968 442.551 93.2327C442.551 109.542 452.289 118.062 466.407 118.062C476.388 118.062 484.908 113.681 487.586 105.161V115.871H509.981V51.1198C509.738 33.593 499.269 24.5862 479.309 24.5862ZM485.151 92.0156C485.151 103.7 481.256 109.056 475.17 109.056C469.328 109.056 467.381 104.431 467.381 92.5024V90.0682C467.381 76.1928 470.302 70.5939 478.335 66.4557L485.151 63.0477V92.0156ZM573.759 24.5862C563.048 24.5862 555.258 29.2113 551.363 36.7575V26.777H528.237V115.871H552.824V49.1723C552.824 38.9484 558.423 33.8364 564.264 33.8364C569.863 33.8364 571.812 38.4615 571.812 45.521V115.628H596.397V50.3895C596.397 32.1324 587.39 24.5862 573.759 24.5862ZM87.147 209.835C87.147 232.716 70.5939 248.053 44.0604 248.053H5.11198V207.4H10.9542C16.3096 231.499 26.2902 242.211 43.0866 242.211C56.7186 242.211 64.0214 234.908 64.0214 222.98C64.0214 210.321 56.2317 204.479 44.7907 197.907L27.5073 187.683C12.9016 179.163 4.62513 168.695 4.62513 154.089C4.62513 137.78 14.1188 127.312 29.4547 122.931C7.78968 117.088 0 97.3712 0 62.3174C0 22.3953 16.5531 0 50.3895 0H81.7916V33.593H75.706C68.4031 12.1713 62.074 5.59883 50.6329 5.59883C33.8364 5.59883 29.2113 23.6125 29.2113 63.2912C29.2113 109.056 33.3495 119.28 45.7643 119.28C55.2581 119.28 59.8832 113.194 59.8832 98.8317V81.3048C59.8832 70.5939 56.4752 66.6991 45.2775 64.9951V59.3963H82.7654V155.063H77.1665C68.6465 130.964 57.6923 125.609 45.521 125.609C33.593 125.609 26.2902 131.208 26.2902 142.162C26.2902 152.386 32.3759 157.254 43.8169 164.07L62.5609 175.267C77.4099 184.518 87.147 193.038 87.147 209.835ZM134.372 156.767C125.122 156.767 114.167 158.471 103.943 161.636V182.57H110.029C115.141 169.426 121.957 162.123 131.694 162.123C137.78 162.123 140.214 165.044 140.214 171.86V183.058C140.214 188.657 138.754 190.361 132.425 192.551L125.852 194.742C106.378 201.314 97.6144 209.835 97.6144 225.17C97.6144 241.48 107.352 250 121.47 250C131.451 250 139.971 245.618 142.648 237.098V247.81H164.8V183.544C164.8 165.774 154.089 156.767 134.372 156.767ZM140.214 224.197C140.214 235.881 136.319 241.237 130.234 241.237C124.391 241.237 122.444 236.612 122.444 224.684V222.249C122.444 208.374 125.365 202.775 133.398 198.637L140.214 195.229V224.197Z" fill="black" fill-opacity="0.95"/>
</svg>
