<svg width="752" height="185" viewBox="0 0 752 185" fill="none" xmlns="http://www.w3.org/2000/svg">
<path d="M217.953 100.016C198.875 100.016 183.266 115.625 183.266 134.703C183.266 153.781 198.875 169.391 217.953 169.391C237.031 169.391 252.641 153.781 252.641 134.703C252.641 115.625 237.609 100.016 217.953 100.016ZM217.953 155.516C206.969 155.516 197.719 146.266 197.719 135.281C197.719 124.297 206.969 115.047 217.953 115.047C228.938 115.047 238.188 124.297 238.188 135.281C238.188 146.266 229.516 155.516 217.953 155.516Z" fill="black"/>
<path d="M138.172 1.73438C119.094 1.73438 103.484 17.3438 103.484 36.4219C103.484 55.5 119.094 71.1094 138.172 71.1094C157.25 71.1094 172.859 55.5 172.859 36.4219C172.859 17.3438 157.25 1.73438 138.172 1.73438ZM138.172 56.6562C127.188 56.6562 117.938 47.4062 117.938 36.4219C117.938 25.4375 127.188 16.1875 138.172 16.1875C149.156 16.1875 158.406 25.4375 158.406 36.4219C158.406 47.9844 149.156 56.6562 138.172 56.6562Z" fill="black"/>
<path d="M497.188 1.73438C478.109 1.73438 462.5 17.3438 462.5 36.4219C462.5 55.5 478.109 71.1094 497.188 71.1094C516.266 71.1094 531.875 55.5 531.875 36.4219C531.875 17.3438 516.266 1.73438 497.188 1.73438ZM497.188 56.6562C486.203 56.6562 476.953 47.4062 476.953 36.4219C476.953 25.4375 486.203 16.1875 497.188 16.1875C508.172 16.1875 517.422 25.4375 517.422 36.4219C517.422 47.9844 508.172 56.6562 497.188 56.6562Z" fill="black"/>
<path d="M121.984 167.656H105.797V183.844H121.984V167.656Z" fill="black"/>
<path d="M154.938 135.281H105.797V151.469H154.938V135.281Z" fill="black"/>
<path d="M171.125 102.328H105.797V118.516H171.125V102.328Z" fill="black"/>
<path d="M270.562 102.328V167.656H328.375V153.203H285.016V142.219H327.797V127.766H285.016V116.781H328.375V102.328H270.562Z" fill="black"/>
<path d="M398.328 142.797C401.797 141.063 404.688 138.172 407 135.281C408.734 131.813 409.891 128.344 409.891 124.297C409.891 118.516 407.578 113.313 403.531 109.266C399.484 105.219 393.703 102.906 386.188 102.906H350.344V167.656H364.797V145.109H383.875L395.438 167.656H411.625L398.328 142.797ZM393.125 128.922C391.391 130.078 389.656 130.656 386.766 130.656H364.797V116.781H386.766C389.656 116.781 391.391 117.359 393.125 118.516C394.859 119.672 395.438 121.406 395.438 123.719C395.438 126.031 394.281 127.766 393.125 128.922Z" fill="black"/>
<path d="M497.766 102.328V116.781H520.313V167.656H534.766V116.781H557.313V102.328H497.766Z" fill="black"/>
<path d="M572.344 102.328V167.656H630.156V153.203H586.797V142.219H629.578V127.766H586.797V116.781H629.578V102.328H572.344Z" fill="black"/>
<path d="M700.109 142.797C703.578 141.063 706.469 138.172 708.781 135.281C710.516 131.813 711.672 128.344 711.672 124.297C711.672 118.516 709.359 113.313 705.312 109.266C701.266 105.219 695.484 102.906 687.969 102.906H652.125V167.656H666.578V145.109H685.656L697.219 167.656H713.406L700.109 142.797ZM694.906 128.922C693.172 130.078 691.437 130.656 688.547 130.656H666.578V116.781H688.547C691.437 116.781 693.172 117.359 694.906 118.516C696.641 119.672 697.219 121.406 697.219 123.719C697.219 126.031 696.062 127.766 694.906 128.922Z" fill="black"/>
<path d="M435.328 106.375C430.125 110.422 427.813 115.047 427.813 121.406C427.813 127.766 430.125 132.391 434.172 135.859C438.219 139.328 444.578 141.062 451.516 141.641L463.078 142.797C466.547 142.797 468.859 143.375 470.594 144.531C472.328 145.109 473.484 146.844 473.484 148.578C473.484 152.625 468.281 154.937 458.453 154.937C456.141 154.937 453.25 154.359 450.938 153.781C448.625 153.203 446.313 152.625 445.156 151.469C443.422 150.891 442.266 149.734 440.531 148.578C439.375 147.422 438.219 146.844 437.641 146.266C437.062 145.687 437.063 145.687 436.484 145.109L425.5 156.094L426.656 157.25C427.234 158.406 428.391 159.562 430.703 160.719C432.438 161.875 434.75 163.609 437.062 164.766C439.375 165.922 442.266 167.078 446.312 168.234C450.359 169.391 454.406 169.391 458.453 169.391C467.703 169.391 474.641 167.656 480.422 163.609C485.625 159.562 488.516 154.359 488.516 148C488.516 141.641 486.203 137.016 481.578 133.547C476.953 130.078 470.594 128.344 463.078 127.766L451.516 126.609C445.156 126.031 442.266 124.297 442.266 120.828C442.266 116.781 446.312 114.469 454.984 114.469C457.297 114.469 459.609 114.469 461.922 115.047C464.234 115.625 465.969 116.203 467.125 116.781C468.281 117.359 469.438 118.516 470.594 119.094C471.75 120.25 472.328 120.828 472.906 120.828C473.484 121.406 473.484 121.406 473.484 121.406L485.047 112.734L483.891 111.578C483.312 110.422 482.156 109.266 480.422 108.109C478.688 106.953 476.953 105.219 474.641 104.062C472.328 102.906 469.438 101.75 465.969 100.594C462.5 99.4375 459.031 99.4375 454.984 99.4375C447.469 100.016 440.531 102.328 435.328 106.375Z" fill="black"/>
<path d="M19.6562 4.04688H3.46875V69.375H19.6562V4.04688Z" fill="black"/>
<path d="M52.6094 4.04688H36.4219V53.1875H52.6094V4.04688Z" fill="black"/>
<path d="M85.5625 4.04688H69.375V69.375H85.5625V4.04688Z" fill="black"/>
<path d="M367.109 4.04688H350.922V69.375H367.109V4.04688Z" fill="black"/>
<path d="M238.187 43.9375C241.656 42.2031 244.547 39.3125 246.859 36.4219C248.594 32.9531 249.75 29.4844 249.75 25.4375C249.75 19.6562 247.437 14.4531 243.391 10.4062C239.344 6.35937 233.562 4.04688 226.047 4.04688H190.203V69.375H204.656V46.8281H223.734L235.297 69.375H251.484L238.187 43.9375ZM232.984 30.6406C231.25 31.7969 229.516 32.375 226.625 32.375H204.656V18.5H226.625C229.516 18.5 231.25 19.0781 232.984 20.2344C234.719 21.3906 235.297 23.125 235.297 25.4375C235.297 27.75 234.719 29.4844 232.984 30.6406Z" fill="black"/>
<path d="M318.547 43.9375C322.016 42.2031 324.906 39.3125 327.219 36.4219C328.953 32.9531 330.109 29.4844 330.109 25.4375C330.109 19.6562 327.797 14.4531 323.75 10.4062C319.703 6.35937 313.922 4.04688 306.406 4.04688H270.562V69.375H285.016V46.8281H304.094L315.656 69.375H331.844L318.547 43.9375ZM313.344 30.6406C311.609 31.7969 309.875 32.375 306.984 32.375H285.016V18.5H306.984C309.875 18.5 311.609 19.0781 313.344 20.2344C315.078 21.3906 315.656 23.125 315.656 25.4375C315.656 27.75 314.5 29.4844 313.344 30.6406Z" fill="black"/>
<path d="M599.516 4.04688V56.6563L572.344 4.04688H548.641V69.375H563.094V17.3438L590.266 69.375H613.969V4.04688H599.516Z" fill="black"/>
<path d="M395.438 7.51562C390.234 11.5625 387.922 16.7656 387.922 23.125C387.922 29.4844 390.234 34.1094 394.281 37.5781C398.328 41.0469 404.688 42.7812 411.625 43.3594L423.188 44.5156C426.656 44.5156 428.969 45.0938 430.703 46.25C432.438 46.8281 433.594 48.5625 433.594 50.2969C433.594 54.3437 428.391 56.6562 418.563 56.6562C416.25 56.6562 413.359 56.0781 411.047 55.5C408.734 54.9219 406.422 54.3437 405.266 53.1875C403.531 52.6094 402.375 51.4531 400.641 50.2969C399.484 49.1406 398.328 48.5625 397.75 47.9844C397.172 47.4062 397.172 47.4062 396.594 46.8281L385.609 56.0781L386.766 57.2344C387.344 58.3906 388.5 59.5469 390.813 60.7031C392.547 61.8594 394.859 63.5937 397.172 64.75C399.484 65.9062 402.375 67.0625 406.422 68.2188C410.469 69.375 414.516 69.375 418.563 69.375C427.813 69.375 434.75 67.6406 440.531 63.5938C445.734 59.5469 448.625 54.3438 448.625 47.9844C448.625 41.625 446.313 37 441.688 33.5312C437.063 30.0625 430.703 28.3281 423.188 27.75L411.625 26.5937C405.266 26.0156 402.375 24.2812 402.375 20.8125C402.375 16.7656 406.422 14.4531 415.094 14.4531C417.406 14.4531 419.719 14.4531 422.031 15.0312C424.344 15.6094 426.078 16.1875 427.234 16.7656C428.391 17.3438 429.547 18.5 430.703 19.0781C432.438 22.5469 433.594 23.125 433.594 23.125C434.172 23.7031 434.172 23.7031 434.172 23.7031L445.734 15.0312L444.578 13.875C444 12.7188 442.844 11.5625 441.109 10.4062C439.375 9.25 437.641 7.51562 435.328 6.35938C433.016 5.20312 430.125 4.04688 426.656 2.89062C423.188 1.73437 419.719 1.73438 415.672 1.73438C407.578 1.73438 400.641 4.04687 395.438 7.51562Z" fill="black"/>
</svg>
