<svg width="750" height="122" viewBox="0 0 750 122" fill="none" xmlns="http://www.w3.org/2000/svg">
<path d="M82.444 104.179C84.1747 104.179 85.8231 103.766 87.389 102.858L105.438 92.4564C109.065 90.3926 113.268 89.4846 117.471 89.9799C139.395 92.5389 154.724 96.6664 159.257 97.9872C160.164 98.2349 161.235 97.9047 161.812 97.1617C162.554 96.2537 163.46 94.7678 164.202 92.6215C164.862 90.5577 164.944 88.8242 164.862 87.5859C164.779 86.5953 164.12 85.6872 163.131 85.4396C156.043 83.3758 124.642 74.8732 82.444 74.8732C40.2462 74.8732 8.84506 83.3758 1.75714 85.4396C0.768132 85.6872 0.108791 86.5953 0.0263736 87.5859C-0.056044 88.7416 0.0263736 90.4752 0.685714 92.6215C1.34505 94.7678 2.33407 96.2537 3.07582 97.1617C3.65275 97.9047 4.72418 98.2349 5.63077 97.9872C10.1637 96.6664 25.5758 92.5389 47.4165 89.9799C51.6198 89.4846 55.8231 90.3926 59.4494 92.4564L77.4989 102.858C79.0648 103.766 80.7956 104.179 82.444 104.179ZM52.3615 45.6503C53.3505 47.3839 54.9165 48.5396 56.7297 49.0349C58.5429 49.5302 60.4385 49.2826 62.1692 48.2919C63.9 47.3013 65.0538 45.7329 65.5483 43.9168C66.0429 42.1007 65.7956 40.202 64.8066 38.4685L48.5703 10.3188C48.0758 9.41074 47.0044 9.08054 46.0154 9.16309C44.6967 9.24564 42.8835 9.90604 40.7407 11.1443C38.5978 12.3826 37.1143 13.6208 36.3725 14.694C35.7956 15.5195 35.6308 16.5926 36.1253 17.5007L52.3615 45.6503ZM37.5264 65.7926C39.2571 66.7832 41.2352 66.9483 42.9659 66.5356C44.7791 66.0403 46.3451 64.8846 47.3341 63.151C48.3231 61.4174 48.4879 59.4362 48.0758 57.7027C47.6637 55.9691 46.4275 54.3181 44.6967 53.3275L16.5923 37.0651C15.6857 36.5698 14.6143 36.7349 13.7901 37.3128C12.7187 38.0557 11.4824 39.5416 10.2462 41.6879C9.00989 43.8342 8.35055 45.6503 8.26813 46.9711C8.18571 48.0443 8.5978 49.0349 9.42198 49.5302L37.5264 65.7926ZM89.6143 35.6617C89.6143 37.643 88.7901 39.4591 87.5538 40.7799C86.2352 42.1007 84.5044 42.8436 82.444 42.8436C80.4659 42.8436 78.6527 42.0181 77.3341 40.7799C76.0154 39.4591 75.2736 37.7255 75.2736 35.6617V3.21946C75.2736 2.14631 75.933 1.32081 76.922 0.908054C78.0758 0.330201 79.9714 0 82.444 0C84.9165 0 86.8121 0.330201 87.9659 0.908054C88.8725 1.40336 89.6143 2.14631 89.6143 3.21946V35.6617ZM112.526 45.6503C111.537 47.3839 109.971 48.5396 108.158 49.0349C106.345 49.5302 104.449 49.2826 102.719 48.2919C100.988 47.3013 99.8341 45.7329 99.3396 43.9168C98.8451 42.1007 99.0923 40.202 100.081 38.4685L116.318 10.3188C116.812 9.41074 117.884 9.08054 118.873 9.16309C120.191 9.24564 122.004 9.90604 124.147 11.1443C126.29 12.3826 127.774 13.6208 128.515 14.694C129.092 15.5195 129.257 16.5926 128.763 17.5007L112.526 45.6503ZM127.362 65.7926C125.631 66.7832 123.653 66.9483 121.922 66.5356C120.109 66.0403 118.543 64.8846 117.554 63.151C116.565 61.4174 116.4 59.4362 116.812 57.7027C117.307 55.8866 118.46 54.3181 120.191 53.3275L148.296 37.0651C149.202 36.5698 150.274 36.7349 151.098 37.3128C152.169 38.0557 153.406 39.5416 154.642 41.6879C155.878 43.8342 156.537 45.6503 156.62 46.9711C156.702 48.0443 156.29 49.0349 155.466 49.5302L127.362 65.7926ZM306.62 43.4215H320.136C320.631 43.4215 321.043 43.7517 321.29 44.1644L334.724 78.6705L347.746 44.1644C347.911 43.6691 348.405 43.4215 348.9 43.4215H362.169C363.076 43.4215 363.653 44.3295 363.241 45.0725L330.274 120.854C330.109 121.266 329.614 121.597 329.202 121.597H317.499C316.675 121.597 316.015 120.689 316.427 119.946L327.719 93.447L305.631 45.0725C305.136 44.3295 305.713 43.4215 306.62 43.4215ZM506.153 51.0987V44.6597C506.153 43.9993 506.73 43.4215 507.389 43.4215H519.34C519.999 43.4215 520.576 43.9993 520.576 44.6597V96.0886C520.576 96.749 519.999 97.3268 519.34 97.3268H507.389C506.73 97.3268 506.153 96.749 506.153 96.0886V89.3195C503.598 93.2819 497.993 98.4825 488.845 98.4825C471.373 98.4825 462.307 85.1094 462.307 70.1678C462.307 50.6859 475.823 42.3483 488.433 42.3483C496.757 42.2658 502.526 46.2282 506.153 51.0987ZM476.73 70.2503C476.73 79.496 482.417 86.5953 491.565 86.5953C500.713 86.5953 506.565 80.404 506.565 70.9107C506.565 61.4174 500.878 54.153 491.153 54.153C482.004 54.153 476.73 61.2523 476.73 70.2503ZM531.373 96.0886V44.6597C531.373 43.9993 531.949 43.4215 532.609 43.4215H544.559C545.219 43.4215 545.796 43.9993 545.796 44.6597V51.6765C548.598 46.806 553.873 42.3483 562.856 42.3483C572.087 42.3483 582.389 46.8886 582.389 67.7738V96.0886C582.389 96.749 581.812 97.3268 581.153 97.3268H569.202C568.543 97.3268 567.966 96.749 567.966 96.0886V68.0215C567.966 62.9859 566.73 54.3181 557.829 54.3181C548.927 54.3181 545.796 62.1604 545.796 69.4248V96.0886C545.796 96.749 545.219 97.3268 544.559 97.3268H532.609C531.867 97.2443 531.373 96.749 531.373 96.0886ZM592.609 96.0886V44.6597C592.609 43.9993 593.186 43.4215 593.845 43.4215H605.796C606.455 43.4215 607.032 43.9993 607.032 44.6597V51.6765C609.834 46.806 615.109 42.3483 624.092 42.3483C633.323 42.3483 643.625 46.8886 643.625 67.7738V96.0886C643.625 96.749 643.048 97.3268 642.389 97.3268H630.438C629.779 97.3268 629.202 96.749 629.202 96.0886V68.0215C629.202 62.9859 627.966 54.3181 619.065 54.3181C610.164 54.3181 607.032 62.1604 607.032 69.4248V96.0886C607.032 96.749 606.455 97.3268 605.796 97.3268H593.845C593.186 97.2443 592.609 96.749 592.609 96.0886ZM718.131 43.4215H729.752C730.411 43.4215 730.988 43.9993 730.988 44.6597V55.3087C733.296 44.7423 742.362 41.1101 748.955 42.6785C749.532 42.7611 749.862 43.2564 749.862 43.8342V55.5564C749.862 56.2993 749.202 56.8772 748.378 56.7121C736.18 54.3181 731.235 60.9221 731.235 70.1678V96.0886C731.235 96.749 730.658 97.3268 729.999 97.3268H718.048C717.389 97.3268 716.812 96.749 716.812 96.0886V44.6597C716.895 43.9993 717.471 43.4215 718.131 43.4215ZM227.416 55.1436C223.708 53.9054 221.73 53.1624 218.763 52.1718C215.713 51.0987 210.521 48.1268 210.521 43.3389C210.521 38.551 213.818 35.4966 220.493 35.4966C226.592 35.4966 229.971 38.4685 232.197 43.2564C232.526 43.9168 233.268 44.1644 233.927 43.8342L243.735 38.1383C244.23 37.8081 244.477 37.1477 244.23 36.5698C241.263 30.0483 234.34 22.206 220.658 22.206C205.411 22.206 195.851 31.2866 195.851 43.2564C195.851 55.1436 203.68 61.3349 214.312 64.9671C218.186 66.2879 219.752 66.8658 223.048 67.9389C229.312 70.0852 232.197 72.8919 232.197 76.7718C232.197 80.6517 229.724 85.2745 219.999 85.2745C211.098 85.2745 207.966 80.5691 206.153 76.1114C205.906 75.451 205.081 75.1208 204.422 75.5336L194.12 81.4772C193.625 81.8074 193.378 82.3852 193.625 82.9631C197.581 92.704 208.378 98.4825 220.493 98.4825C234.752 98.4825 246.785 91.2181 246.785 76.5242C246.785 61.8302 231.125 56.3819 227.416 55.1436ZM306.125 83.2107C305.796 82.6329 304.971 82.3852 304.395 82.798C299.779 86.1825 294.34 86.2651 290.219 79.9087C286.757 74.5429 282.554 67.9389 282.554 67.9389L300.686 45.4027C301.345 44.5772 300.768 43.4215 299.779 43.4215H285.603C285.191 43.4215 284.862 43.5866 284.614 43.9168L268.955 65.4624V22.1235C268.955 21.4631 268.378 20.8852 267.719 20.8852H255.768C255.109 20.8852 254.532 21.4631 254.532 22.1235V96.0886C254.532 96.749 255.109 97.3268 255.768 97.3268H267.801C268.46 97.3268 269.037 96.749 269.037 96.0886V72.0664C269.037 72.0664 277.032 84.6966 280.081 89.402C284.202 95.8409 289.971 98.4825 296.235 98.4825C302.169 98.4825 305.96 96.9141 310.493 92.4564C310.905 92.0436 310.988 91.4658 310.741 90.9705L306.125 83.2107ZM391.922 66.2054C388.131 64.802 386.812 64.3067 383.927 63.2336C381.043 62.1604 378.488 60.5919 378.488 58.2805C378.488 55.9691 380.631 53.4101 384.999 53.4101C388.79 53.4101 391.098 54.896 392.417 57.5376C392.746 58.198 393.488 58.3631 394.065 58.0329L402.471 53.1624C403.048 52.8322 403.213 52.0893 402.884 51.5114C400.576 47.4664 396.043 42.3483 385.081 42.3483C371.647 42.3483 364.724 50.1081 364.724 58.6933C364.724 67.2785 371.73 71.3235 378.158 73.8826C385.411 76.8544 385.905 77.0195 386.812 77.3497C389.037 78.2577 391.757 79.6611 391.757 82.2201C391.757 84.7792 388.79 87.0906 384.257 87.0906C380.054 87.0906 375.274 85.357 373.296 80.4866C373.048 79.8262 372.224 79.496 371.565 79.9087L363.076 84.7792C362.581 85.1094 362.334 85.6872 362.581 86.2651C365.054 92.704 372.389 98.4 384.257 98.4C397.114 98.4 405.686 91.5483 405.686 81.8899C405.686 72.2315 399.092 68.847 391.922 66.2054ZM440.219 55.1436C445.576 55.1436 449.532 56.7946 453.241 59.4362C453.818 59.849 454.642 59.6839 454.971 59.106L459.916 50.5208C460.246 49.943 460.081 49.2826 459.504 48.9523C454.395 45.4852 448.048 42.2658 439.477 42.2658C430.988 42.2658 423.158 44.5772 417.554 50.2732C411.949 55.8866 409.395 62.5731 409.395 70.498C409.395 80.0738 413.351 86.1825 417.636 90.4752C421.922 94.7678 429.669 98.4 439.559 98.4C448.46 98.4 455.054 94.6852 459.587 91.7134C460.081 91.3832 460.246 90.6403 459.916 90.145L455.054 81.6423C454.724 81.0644 453.9 80.8168 453.323 81.2295C450.109 83.5409 445.493 85.5221 440.301 85.5221C434.449 85.5221 423.818 82.2201 423.818 70.3329C423.818 58.4456 434.367 55.1436 440.219 55.1436ZM682.691 86.5127C677.911 86.5127 673.378 85.357 670.081 82.7154C666.785 80.0738 665.219 77.3497 665.219 74.1302H707.911C708.57 74.1302 709.147 73.5523 709.147 72.8919C708.9 60.1792 704.779 54.2356 700.823 50.1906C696.702 46.0631 689.697 42.2658 680.466 42.2658C671.235 42.2658 664.147 45.6503 659.285 50.4383C654.504 55.2262 650.878 61.3349 650.878 70.5805C650.878 79.8262 654.587 85.9349 659.12 90.4752C663.653 95.0154 671.07 98.4 681.702 98.4C691.757 98.4 700.246 94.8503 706.345 87.8335C706.84 87.2557 706.675 86.3476 706.015 86.0174L697.526 81.0644C697.114 80.8168 696.537 80.8168 696.125 81.2295C691.922 85.1919 686.565 86.5127 682.691 86.5127ZM680.383 53.8228C687.224 53.8228 693.488 57.9503 694.477 65.3799H665.713C667.609 57.3725 673.543 53.8228 680.383 53.8228Z" fill="#2262E3"/>
</svg>
