<svg width="750" height="138" viewBox="0 0 750 138" fill="none" xmlns="http://www.w3.org/2000/svg">
<g clip-path="url(#clip0_168_117)">
<path d="M142.308 0.951431L124.919 88.0751L105.401 0.951431H71.5088L51.9911 88.0751L34.6022 0.951431H0L28.2121 134.035H68.4911L88.1881 45.6673L107.885 134.035H147.279L175.312 0.951431H142.308Z" fill="#0053E2"/>
<path d="M222.954 25.44C201.483 25.44 186.403 32.7153 180.901 37.8617V66.2531C187.288 60.5763 200.774 52.2367 218.518 52.2367C229.52 52.2367 233.598 55.2543 233.598 61.4652C233.598 66.7872 227.922 68.916 212.127 72.2884C188.173 77.2556 174.332 85.9501 174.332 106.711C174.332 125.874 186.929 137.052 205.207 137.052C220.519 137.052 229.655 129.941 234.663 120.392V134.035H267.667V68.733C267.67 38.7469 252.055 25.44 222.954 25.44ZM218.342 115.578C210.536 115.578 206.275 110.786 206.275 104.22C206.275 95.7014 213.016 92.3327 221.535 89.315C225.976 87.6493 230.416 85.9127 233.423 83.2835V98.0095C233.423 109.191 227.571 115.578 218.342 115.578Z" fill="#0053E2"/>
<path d="M318.423 0.951431H284.176V134.035H318.423V0.951431Z" fill="#0053E2"/>
<path d="M460.02 25.7948C443.378 25.7948 432.641 35.8151 427.031 49.1443C424.032 34.8702 414.042 25.7948 400.044 25.7948C384.198 25.7948 373.868 35.0383 368.635 48.0276V28.8087H334.922V134.031H369.169V75.6534C369.169 61.2822 373.961 53.1181 384.25 53.1181C392.59 53.1181 395.428 58.7949 395.428 67.6686V134.031H429.676V75.6534C429.676 61.2822 434.467 53.1181 444.756 53.1181C453.096 53.1181 455.934 58.7949 455.934 67.6686V134.031H490.182V62.8806C490.186 40.7001 479.717 25.7948 460.02 25.7948Z" fill="#0053E2"/>
<path d="M550.161 25.44C528.691 25.44 513.61 32.7153 508.108 37.8617V66.2531C514.495 60.5763 527.981 52.2367 545.725 52.2367C556.727 52.2367 560.805 55.2543 560.805 61.4652C560.805 66.7872 555.129 68.916 539.334 72.2884C515.38 77.2556 501.539 85.9501 501.539 106.711C501.539 125.874 514.136 137.052 532.414 137.052C547.726 137.052 556.862 129.941 561.87 120.392V134.035H594.874V68.733C594.877 38.7469 579.262 25.44 550.161 25.44ZM545.545 115.578C537.736 115.578 533.478 110.786 533.478 104.22C533.478 95.7014 540.22 92.3327 548.739 89.315C553.179 87.6493 557.62 85.9127 560.626 83.2835V98.0095C560.63 109.191 554.774 115.578 545.545 115.578Z" fill="#0053E2"/>
<path d="M645.092 58.3878V28.8087H611.379V134.031H645.802V89.3188C645.802 68.7367 659.288 63.2354 671.53 63.2354C675.612 63.2354 679.515 63.7695 681.289 64.2998V28.0991C661.279 27.1729 649.585 39.4154 645.092 58.3878Z" fill="#0053E2"/>
<path d="M749.999 55.4261V28.8087H728.353V8.40221H694.105V98.8983C694.105 124.272 708.301 136.16 731.191 136.16C741.839 136.16 747.516 134.031 749.999 132.432V105.994C748.046 107.414 744.853 108.478 740.771 108.478C733.32 108.657 728.349 105.285 728.349 94.1067V55.4261H749.999Z" fill="#0053E2"/>
</g>
<defs>
<clipPath id="clip0_168_117">
<rect width="750" height="136.097" fill="white" transform="translate(0 0.951431)"/>
</clipPath>
</defs>
</svg>
