<svg width="744" height="57" viewBox="0 0 744 57" fill="none" xmlns="http://www.w3.org/2000/svg">
<g clip-path="url(#clip0_168_178)">
<path d="M389.632 0.9646V8.63503L398.496 19.2909C392.714 22.1187 388.229 27.0473 385.957 33.0702C385.386 34.7559 385.106 36.5266 385.13 38.3063C385.12 41.9349 386.262 45.4731 388.391 48.411C391.604 52.2707 395.966 55.003 400.841 56.2093C405.716 57.4156 410.849 57.0328 415.491 55.1169C418.634 53.7336 421.498 51.7879 423.942 49.3756L428.994 55.3925H442.314L404.192 10.1507H431.337V0.9646H389.54H389.632ZM396.613 43.4505C395.511 41.845 394.948 39.931 395.005 37.9847C394.993 37.0011 395.149 36.0227 395.465 35.0911C396.273 33.1333 397.46 31.3545 398.957 29.8569C400.455 28.3592 402.234 27.1723 404.192 26.3643L417.971 42.6697C416.244 44.7331 414.013 46.3152 411.495 47.2627C408.923 48.3833 406.055 48.6261 403.332 47.9537C400.609 47.2812 398.183 45.731 396.429 43.5424L396.613 43.4505Z" fill="#01A8DB"/>
<path d="M345.766 9.78329H306.863V22.1387H333.089V31.6004H306.863V45.3796H346.409V54.7954H295.242V0.9646H345.766V9.78329Z" fill="#01A8DB"/>
<path d="M743.343 9.78329H704.394V22.1387H730.62V31.6004H704.394V45.3796H743.94V54.7954H692.773V0.9646H743.343V9.78329Z" fill="#01A8DB"/>
<path d="M35.9178 1.56165L23.6543 37.7091L11.0693 1.65351H0L19.1072 54.6116H27.834L40.7865 15.4786L54.1982 54.6116H62.4657L80.838 1.65351H70.3658L58.3779 37.6632L45.9307 1.56165H35.9178Z" fill="#01A8DB"/>
<path d="M148.355 21.8631V0.9646H160.113V54.7954H148.355V31.9219H115.422V54.7954H103.664V0.9646H115.422V21.8631H148.355Z" fill="#01A8DB"/>
<path d="M187.215 54.7954V0.9646H198.789V54.7954H187.215Z" fill="#01A8DB"/>
<path d="M253.172 54.7954H241.505V10.5182H220.102V0.9646H274.529V10.5182H253.172V54.7954Z" fill="#01A8DB"/>
<path d="M479.425 8.45124C476.924 11.0351 474.965 14.0933 473.664 17.4457C472.362 20.7981 471.744 24.3771 471.847 27.9718C471.847 47.079 486.82 55.5302 501.702 55.5302C509.375 55.1948 516.816 52.7991 523.243 48.5947L518.65 40.6027C513.701 44.1148 507.771 45.979 501.702 45.9307C499.188 46.138 496.658 45.8134 494.278 44.9778C491.897 44.1422 489.72 42.8145 487.887 41.0812C486.054 39.3479 484.606 37.2478 483.639 34.9179C482.672 32.5879 482.207 30.0803 482.273 27.5584C482.27 25.0705 482.773 22.608 483.75 20.3201C484.728 18.0322 486.159 15.9666 487.959 14.2487C489.759 12.5308 491.888 11.1962 494.219 10.326C496.55 9.45574 499.033 9.06796 501.518 9.18613C507.469 9.4311 513.29 11.0002 518.558 13.7792L522.876 5.0983C516.316 1.75913 509.062 0.012499 501.702 -5.44544e-06C497.623 -0.123843 493.559 0.558958 489.744 2.00923C485.929 3.4595 482.438 5.6487 479.471 8.45124" fill="#01A8DB"/>
<path d="M570.366 14.8816L578.174 33.9428H562.42L570.366 14.8816ZM552.866 54.7954L558.194 43.2668H582.538L588.141 54.7954H602.747L574.132 0.9646H565.497L538.766 54.7954H552.545" fill="#01A8DB"/>
<path d="M620.065 49.6052L623.831 40.9243C629.762 44.4185 636.472 46.3762 643.352 46.6197C647.945 46.6197 659.841 45.6551 659.933 39.4086C659.933 26.9154 618.32 42.1185 618.595 17.0863C618.595 8.54314 626.725 0.183753 643.673 0.367476C651.966 0.366314 660.144 2.30079 667.557 6.01695L663.286 14.2385C657.29 11.1111 650.663 9.38364 643.903 9.18617C637.84 9.18617 630.353 10.7478 630.124 15.249C630.124 28.2474 671.691 13.5496 671.461 38.2144C671.461 52.3151 654.421 55.5302 643.306 55.4843C627.414 55.1169 620.065 49.6052 620.065 49.6052Z" fill="#01A8DB"/>
</g>
<defs>
<clipPath id="clip0_168_178">
<rect width="743.94" height="57" fill="white"/>
</clipPath>
</defs>
</svg>
